<svg width="14" height="15" viewBox="0 0 14 15" fill="none" xmlns="http://www.w3.org/2000/svg">
<path d="M4.08322 4.00008V2.25008C4.08322 1.92792 4.34439 1.66675 4.66655 1.66675H11.6666C11.9887 1.66675 12.2499 1.92792 12.2499 2.25008V10.4167C12.2499 10.7389 11.9887 11.0001 11.6666 11.0001H9.91655V12.7496C9.91655 13.072 9.65411 13.3334 9.32925 13.3334H2.33722C2.01284 13.3334 1.75 13.0741 1.75 12.7496L1.75152 4.58392C1.75157 4.26148 2.01404 4.00008 2.33883 4.00008H4.08322ZM2.91808 5.16675L2.91678 12.1667H8.74988V5.16675H2.91808ZM5.24988 4.00008H9.91655V9.83341H11.0832V2.83341H5.24988V4.00008Z" fill="#757575"/>
</svg>
