<svg width="20" height="21" viewBox="0 0 20 21" fill="none" xmlns="http://www.w3.org/2000/svg">
<path d="M10 3.625C7.92893 3.625 6.25 5.30393 6.25 7.375V8H5C4.65483 8 4.375 8.27983 4.375 8.625V16.125C4.375 16.4702 4.65483 16.75 5 16.75H10.6525C10.4342 16.2743 10.3125 15.7451 10.3125 15.1875C10.3125 13.1164 11.9914 11.4375 14.0625 11.4375C14.6201 11.4375 15.1493 11.5592 15.625 11.7775V8.625C15.625 8.27983 15.3452 8 15 8H13.75V7.375C13.75 5.30393 12.0711 3.625 10 3.625ZM12.5 8H7.5V7.375C7.5 5.99429 8.61929 4.875 10 4.875C11.3807 4.875 12.5 5.99429 12.5 7.375V8ZM15.7156 17.4629L15.3999 15.6221L16.7374 14.3184L14.8891 14.0498L14.0625 12.375L13.2359 14.0498L11.3876 14.3184L12.7251 15.6221L12.4094 17.4629L14.0625 16.5938L15.7156 17.4629Z" fill="#EB5017"/>
</svg>
