<svg width="14" height="15" viewBox="0 0 14 15" fill="none" xmlns="http://www.w3.org/2000/svg">
<path d="M10.8135 11.9144C9.7909 12.7986 8.45793 13.3334 7 13.3334C3.77834 13.3334 1.16667 10.7217 1.16667 7.50008C1.16667 4.27842 3.77834 1.66675 7 1.66675C10.2216 1.66675 12.8333 4.27842 12.8333 7.50008C12.8333 8.74614 12.4426 9.90096 11.777 10.8488L9.91667 7.50008H11.6667C11.6667 4.92275 9.57735 2.83341 7 2.83341C4.42267 2.83341 2.33334 4.92275 2.33334 7.50008C2.33334 10.0774 4.42267 12.1667 7 12.1667C8.25429 12.1667 9.39295 11.6719 10.2316 10.8668L10.8135 11.9144Z" fill="#757575"/>
</svg>
